<svg width="28" height="28" viewBox="0 0 28 28" fill="none" xmlns="http://www.w3.org/2000/svg">
<path d="M25.8808 13.8085L14.6179 2.55381C14.5368 2.47256 14.4405 2.40809 14.3344 2.36411C14.2284 2.32013 14.1147 2.29749 13.9999 2.29749C13.8851 2.29749 13.7714 2.32013 13.6654 2.36411C13.5594 2.40809 13.463 2.47256 13.3819 2.55381L2.11904 13.8085C1.79092 14.1366 1.60498 14.5823 1.60498 15.0472C1.60498 16.0124 2.38975 16.7972 3.35498 16.7972H4.5417V24.828C4.5417 25.312 4.93272 25.703 5.4167 25.703H12.2499V19.578H15.3124V25.703H22.5831C23.0671 25.703 23.4581 25.312 23.4581 24.828V16.7972H24.6448C25.1097 16.7972 25.5554 16.614 25.8835 16.2831C26.5644 15.5995 26.5644 14.4921 25.8808 13.8085V13.8085Z" fill="#E9E9E9"/>
</svg>
