<svg width="188" height="53" viewBox="0 0 188 53" fill="none" xmlns="http://www.w3.org/2000/svg">
<circle cx="26.5" cy="26.5" r="26.5" fill="#CE60F5"/>
<g clip-path="url(#clip0)">
<path d="M35.0151 20.9158C34.6619 26.1593 34.8776 23.2646 34.523 28.508C32.3707 26.6178 28.1361 26.7645 26.8894 29.6617C26.1041 31.4862 26.41 33.6713 27.7115 35.0907C29.0967 36.6028 31.4416 36.7403 33.2668 36.2456C34.9807 35.7803 36.4459 34.321 36.8306 32.4903C36.8583 32.3644 36.8726 32.2339 36.8916 32.1033C37.3678 25.1683 37.8815 17.9115 38.3181 11.6898L22 15C21.9476 15.0304 20.9762 15.3022 20.9448 15.3561C20.9134 15.4099 20.5022 16.437 20.5 16.5L19.8344 31.2631C17.6825 29.3725 13.4476 29.5187 12.1991 32.4154C11.4133 34.2411 11.7207 36.425 13.0228 37.8458C14.4076 39.3579 16.7527 39.4945 18.5782 39.0002C20.2925 38.535 21.7557 37.075 22.1424 35.245C22.1697 35.1191 22.1823 34.988 22.2012 34.8588L22.3595 32.5951C22.5769 29.4294 22.8031 26.1624 22.9959 23.4908L35.0151 20.9158Z" fill="#EEEEEE"/>
<path d="M16.9139 33.86C17.1529 33.6697 17.1288 33.2459 16.861 32.9128C16.5944 32.5802 16.1836 32.4633 15.9446 32.6536L14.9342 33.4614C14.6952 33.6513 14.7224 34.0762 14.9889 34.4092C15.2546 34.7417 15.6636 34.8577 15.9027 34.6665L16.9139 33.86Z" fill="#E7E6E6"/>
<path d="M32.6017 30.915C32.8407 30.7238 32.8184 30.3005 32.5505 29.9683C32.2821 29.6356 31.8731 29.5183 31.6342 29.7077L30.6237 30.5169C30.3848 30.7063 30.4102 31.1303 30.6781 31.4634C30.9432 31.7972 31.3541 31.9123 31.5931 31.722L32.6017 30.915Z" fill="#E7E6E6"/>
</g>
<path d="M65.15 9.95C67.16 9.35 69.56 9.05 72.35 9.05C74.81 9.05 76.745 9.395 78.155 10.085C79.595 10.745 80.63 11.855 81.26 13.415C81.92 14.975 82.25 17.12 82.25 19.85C82.25 22.79 81.875 25.04 81.125 26.6C80.405 28.13 79.28 29.18 77.75 29.75L83.15 41H78.65L73.7 30.65H69.2V41H65.15V9.95ZM72.35 27.5C74.42 27.5 75.905 26.945 76.805 25.835C77.735 24.695 78.2 22.7 78.2 19.85C78.2 17.84 77.99 16.265 77.57 15.125C77.18 13.985 76.565 13.175 75.725 12.695C74.885 12.215 73.76 11.975 72.35 11.975H69.2V27.5H72.35ZM87.8697 15.35V10.4H91.9197V15.35H87.8697ZM87.8697 41V18.5H91.9197V41H87.8697ZM98.0158 18.5H101.391L101.616 19.85H101.841C102.441 19.25 103.101 18.8 103.821 18.5C104.541 18.2 105.381 18.05 106.341 18.05C108.651 18.05 110.331 18.71 111.381 20.03C112.071 19.43 112.941 18.95 113.991 18.59C115.071 18.23 116.046 18.05 116.916 18.05C118.926 18.05 120.471 18.545 121.551 19.535C122.661 20.525 123.216 22.28 123.216 24.8V41H119.166V24.8C119.166 23.36 118.821 22.325 118.131 21.695C117.471 21.065 116.616 20.75 115.566 20.75C114.936 20.75 114.306 20.84 113.676 21.02C113.046 21.2 112.551 21.41 112.191 21.65C112.491 22.55 112.641 23.6 112.641 24.8V41H108.591V24.8C108.591 23.36 108.246 22.325 107.556 21.695C106.896 21.065 106.041 20.75 104.991 20.75C104.481 20.75 103.956 20.84 103.416 21.02C102.876 21.2 102.426 21.41 102.066 21.65V41H98.0158V18.5ZM136.06 41.45C133.75 41.45 132.01 40.97 130.84 40.01C129.67 39.02 129.085 37.25 129.085 34.7V18.5H133.135V34.7C133.135 36.17 133.51 37.22 134.26 37.85C135.01 38.45 136.06 38.75 137.41 38.75C137.95 38.75 138.52 38.66 139.12 38.48C139.72 38.3 140.2 38.09 140.56 37.85V18.5H144.61V41H141.235L141.01 39.65H140.785C140.215 40.22 139.51 40.67 138.67 41C137.83 41.3 136.96 41.45 136.06 41.45ZM154.718 41.45C153.878 41.45 152.948 41.36 151.928 41.18C150.908 41 150.038 40.79 149.318 40.55V38.75H153.818C155.888 38.75 157.373 38.48 158.273 37.94C159.203 37.4 159.668 36.47 159.668 35.15C159.668 34.07 159.293 33.245 158.543 32.675C157.823 32.075 156.698 31.475 155.168 30.875C153.848 30.305 152.783 29.795 151.973 29.345C151.193 28.865 150.518 28.19 149.948 27.32C149.378 26.42 149.093 25.28 149.093 23.9C149.093 21.71 149.738 20.195 151.028 19.355C152.318 18.485 154.373 18.05 157.193 18.05C158.033 18.05 158.963 18.14 159.983 18.32C161.003 18.5 161.873 18.71 162.593 18.95V20.75H158.093C156.473 20.75 155.243 21.005 154.403 21.515C153.563 21.995 153.143 22.79 153.143 23.9C153.143 24.98 153.503 25.82 154.223 26.42C154.973 26.99 156.113 27.575 157.643 28.175C158.963 28.745 160.013 29.27 160.793 29.75C161.603 30.2 162.293 30.875 162.863 31.775C163.433 32.645 163.718 33.77 163.718 35.15C163.718 36.8 163.403 38.075 162.773 38.975C162.173 39.875 161.228 40.52 159.938 40.91C158.648 41.27 156.908 41.45 154.718 41.45ZM176.746 41.45C174.436 41.45 172.591 41.105 171.211 40.415C169.861 39.695 168.871 38.495 168.241 36.815C167.611 35.105 167.296 32.75 167.296 29.75C167.296 26.81 167.581 24.485 168.151 22.775C168.751 21.065 169.621 19.85 170.761 19.13C171.901 18.41 173.371 18.05 175.171 18.05C176.971 18.05 178.441 18.41 179.581 19.13C180.721 19.85 181.576 21.065 182.146 22.775C182.746 24.485 183.046 26.81 183.046 29.75V31.1H171.346C171.346 33.05 171.556 34.58 171.976 35.69C172.396 36.8 173.056 37.595 173.956 38.075C174.886 38.525 176.116 38.75 177.646 38.75H182.146V40.55C181.426 40.79 180.556 41 179.536 41.18C178.516 41.36 177.586 41.45 176.746 41.45ZM178.996 28.4C178.996 25.58 178.636 23.57 177.916 22.37C177.226 21.14 176.311 20.525 175.171 20.525C174.031 20.525 173.101 21.14 172.381 22.37C171.691 23.57 171.346 25.58 171.346 28.4H178.996Z" fill="#CE60F5"/>
<defs>
<clipPath id="clip0">
<rect width="29.0453" height="29.0453" fill="white" transform="translate(13.0254 11) rotate(3.99873)"/>
</clipPath>
</defs>
</svg>
