<svg width="30" height="30" viewBox="0 0 30 30" fill="none" xmlns="http://www.w3.org/2000/svg">
<path d="M15.0149 11.4434C14.1389 11.4434 13.3186 11.7832 12.6975 12.4043C12.0793 13.0254 11.7366 13.8457 11.7366 14.7217C11.7366 15.5977 12.0793 16.418 12.6975 17.0391C13.3186 17.6572 14.1389 18 15.0149 18C15.8909 18 16.7112 17.6572 17.3323 17.0391C17.9504 16.418 18.2932 15.5977 18.2932 14.7217C18.2932 13.8457 17.9504 13.0254 17.3323 12.4043C17.0289 12.0986 16.6678 11.8562 16.27 11.6913C15.8722 11.5263 15.4455 11.442 15.0149 11.4434ZM27.094 18.3428L25.178 16.7051C25.2688 16.1484 25.3157 15.5801 25.3157 15.0147C25.3157 14.4492 25.2688 13.8779 25.178 13.3242L27.094 11.6865C27.2387 11.5626 27.3423 11.3976 27.391 11.2134C27.4396 11.0292 27.4311 10.8345 27.3664 10.6553L27.3401 10.5791C26.8128 9.10456 26.0227 7.73776 25.008 6.54492L24.9553 6.4834C24.8321 6.33853 24.6679 6.23439 24.4843 6.18471C24.3008 6.13503 24.1064 6.14213 23.927 6.20508L21.5481 7.05176C20.6692 6.33106 19.6907 5.7627 18.6301 5.36719L18.1701 2.87988C18.1354 2.69251 18.0446 2.52012 17.9095 2.38564C17.7745 2.25115 17.6018 2.16093 17.4143 2.12695L17.3352 2.1123C15.8118 1.83691 14.2063 1.83691 12.6828 2.1123L12.6037 2.12695C12.4162 2.16093 12.2435 2.25115 12.1085 2.38564C11.9735 2.52012 11.8826 2.69251 11.8479 2.87988L11.385 5.37891C10.3345 5.77757 9.35588 6.34455 8.48753 7.05762L6.09105 6.20508C5.91165 6.14163 5.71719 6.13427 5.53351 6.18398C5.34984 6.2337 5.18563 6.33813 5.06273 6.4834L5.00999 6.54492C3.99718 7.73903 3.20727 9.10549 2.67796 10.5791L2.65159 10.6553C2.51976 11.0215 2.62816 11.4316 2.92406 11.6865L4.86351 13.3418C4.77269 13.8926 4.72874 14.4551 4.72874 15.0117C4.72874 15.5742 4.77269 16.1367 4.86351 16.6816L2.92992 18.3369C2.78518 18.4608 2.68158 18.6259 2.63292 18.8101C2.58425 18.9943 2.5928 19.1889 2.65745 19.3682L2.68382 19.4443C3.21409 20.918 3.99632 22.2803 5.01585 23.4785L5.06859 23.54C5.19179 23.6849 5.356 23.789 5.53957 23.8387C5.72314 23.8884 5.91745 23.8813 6.09691 23.8184L8.49339 22.9658C9.36644 23.6836 10.3391 24.252 11.3909 24.6445L11.8537 27.1436C11.8884 27.3309 11.9793 27.5033 12.1143 27.6378C12.2494 27.7723 12.4221 27.8625 12.6096 27.8965L12.6887 27.9111C14.2271 28.188 15.8026 28.188 17.341 27.9111L17.4201 27.8965C17.6077 27.8625 17.7804 27.7723 17.9154 27.6378C18.0504 27.5033 18.1413 27.3309 18.176 27.1436L18.636 24.6563C19.6965 24.2578 20.675 23.6924 21.5539 22.9717L23.9328 23.8184C24.1122 23.8818 24.3067 23.8892 24.4904 23.8395C24.6741 23.7897 24.8383 23.6853 24.9612 23.54L25.0139 23.4785C26.0334 22.2744 26.8157 20.918 27.3459 19.4443L27.3723 19.3682C27.4983 19.0049 27.3899 18.5977 27.094 18.3428ZM15.0149 19.8721C12.1701 19.8721 9.86449 17.5664 9.86449 14.7217C9.86449 11.877 12.1701 9.57129 15.0149 9.57129C17.8596 9.57129 20.1653 11.877 20.1653 14.7217C20.1653 17.5664 17.8596 19.8721 15.0149 19.8721Z" fill="white"/>
</svg>
