<svg width="21" height="40" viewBox="0 0 21 40" fill="none" xmlns="http://www.w3.org/2000/svg">
<path d="M10.5 11C12.433 11 14 9.433 14 7.5C14 5.567 12.433 4 10.5 4C8.567 4 7 5.567 7 7.5C7 9.433 8.567 11 10.5 11Z" fill="white"/>
<path d="M10.5 24C12.433 24 14 22.433 14 20.5C14 18.567 12.433 17 10.5 17C8.567 17 7 18.567 7 20.5C7 22.433 8.567 24 10.5 24Z" fill="white"/>
<path d="M10.5 36C12.433 36 14 34.433 14 32.5C14 30.567 12.433 29 10.5 29C8.567 29 7 30.567 7 32.5C7 34.433 8.567 36 10.5 36Z" fill="white"/>
</svg>
