<svg width="32" height="32" viewBox="0 0 32 32" fill="none" xmlns="http://www.w3.org/2000/svg">
<path fill-rule="evenodd" clip-rule="evenodd" d="M23.9118 12.0001H24.0118C24.7984 12.0002 25.5774 12.1556 26.3039 12.4573C27.0305 12.7589 27.6903 13.201 28.2458 13.7581C29.3691 14.8841 30 16.4096 30 18.0001C30 19.5906 29.3691 21.1162 28.2458 22.2421C27.6903 22.7992 27.0305 23.2413 26.3039 23.543C25.5774 23.8446 24.7984 24 24.0118 24.0001H20.0218V22.0001H24.0118C25.0417 21.954 26.0141 21.5125 26.7267 20.7674C27.4392 20.0223 27.8368 19.0311 27.8368 18.0001C27.8368 16.9692 27.4392 15.9779 26.7267 15.2328C26.0141 14.4877 25.0417 14.0462 24.0118 14.0001H22.1838L21.9378 12.2861C21.7877 11.2123 21.2912 10.2167 20.5238 9.45076C19.7563 8.68478 18.7599 8.19019 17.6858 8.04212C16.611 7.8953 15.5178 8.10516 14.5737 8.63948C13.6297 9.17381 12.8871 10.0031 12.4598 11.0001L11.7938 12.5241L10.1758 12.1461C9.80592 12.0544 9.42677 12.0054 9.04576 12.0001C7.72176 12.0001 6.45176 12.5261 5.51776 13.4641C4.8217 14.164 4.34809 15.0541 4.15647 16.0224C3.96485 16.9907 4.06378 17.9941 4.44082 18.9063C4.81786 19.8186 5.45618 20.599 6.27553 21.1494C7.09487 21.6999 8.05867 21.9959 9.04576 22.0001H14.0338V24.0001H9.04576C8.05513 24.009 7.07398 23.8067 6.16768 23.4067C5.26138 23.0066 4.45073 22.418 3.78976 21.6801C2.79037 20.5672 2.17354 19.1635 2.02959 17.6746C1.88563 16.1858 2.22211 14.6899 2.98976 13.4061C3.49819 12.5556 4.18156 11.8228 4.99459 11.2563C5.80762 10.6898 6.73176 10.3025 7.70576 10.1201C8.67776 9.94012 9.67976 9.96612 10.6418 10.2021C11.2479 8.81415 12.2896 7.66132 13.6092 6.91798C14.9288 6.17464 16.4546 5.88123 17.9558 6.08212C19.4576 6.28534 20.852 6.97333 21.927 8.04151C23.002 9.10969 23.6989 10.4996 23.9118 12.0001ZM20.5858 19.7061L17.9578 17.0801V27.9521H15.9698V17.1521L13.4138 19.7081L11.9998 18.2921L16.2918 14.0001H17.7078L21.9998 18.2921L20.5858 19.7061V19.7061Z" fill="#EEEEEE"/>
</svg>
